# MagicaVoxel @ Ephtracy

# material
mtllib vulture_leg.mtl
usemtl palette

# normals
vn -1 0 0
vn 1 0 0
vn 0 0 1
vn 0 0 -1
vn 0 -1 0
vn 0 1 0

# texcoords
vt 0.970703 0.5
vt 0.974609 0.5
vt 0.978516 0.5

# verts
v -3 0 4
v -3 0 3
v -3 0 2
v -3 0 1
v -3 1 3
v -3 1 2
v -3 1 1
v -3 2 4
v -3 2 1
v -2 0 1
v -2 0 -0
v -2 1 1
v -2 1 -0
v -2 7 2
v -2 7 -1
v -2 12 2
v -2 12 -1
v -1 0 5
v -1 0 4
v -1 0 3
v -1 0 1
v -1 1 4
v -1 1 3
v -1 1 2
v -1 1 1
v -1 1 -0
v -1 1 -1
v -1 1 -2
v -1 1 -3
v -1 2 5
v -1 2 2
v -1 2 -0
v -1 2 -1
v -1 2 -2
v -1 2 -3
v -1 3 -1
v -1 3 -2
v -1 7 1
v -1 7 -0
v 1 0 4
v 1 0 3
v 1 0 2
v 1 0 1
v 1 1 3
v 1 1 2
v 1 1 1
v 1 2 4
v 1 2 1
v -2 0 4
v -2 0 3
v -2 0 2
v -2 0 1
v -2 1 3
v -2 1 2
v -2 1 1
v -2 2 4
v -2 2 1
v 0 0 5
v 0 0 4
v 0 0 3
v 0 0 1
v 0 1 4
v 0 1 3
v 0 1 2
v 0 1 1
v 0 1 -0
v 0 1 -1
v 0 1 -2
v 0 1 -3
v 0 2 5
v 0 2 2
v 0 2 -0
v 0 2 -1
v 0 2 -2
v 0 2 -3
v 0 3 -1
v 0 3 -2
v 0 7 1
v 0 7 -0
v 1 0 1
v 1 0 -0
v 1 1 1
v 1 1 -0
v 1 7 2
v 1 7 -1
v 1 12 2
v 1 12 -1
v 2 0 4
v 2 0 3
v 2 0 2
v 2 0 1
v 2 1 3
v 2 1 2
v 2 1 1
v 2 2 4
v 2 2 1
v -1 0 5
v -1 2 5
v 0 0 5
v 0 2 5
v -3 0 4
v -3 2 4
v -2 0 4
v -2 2 4
v 1 0 4
v 1 2 4
v 2 0 4
v 2 2 4
v -1 0 3
v -1 1 3
v 0 0 3
v 0 1 3
v -3 0 2
v -3 1 2
v -2 0 2
v -2 1 2
v -2 7 2
v -2 12 2
v 1 0 2
v 1 1 2
v 1 7 2
v 1 12 2
v 2 0 2
v 2 1 2
v -2 0 1
v -2 1 1
v -1 0 1
v -1 1 1
v -1 7 1
v 0 0 1
v 0 1 1
v 0 7 1
v 1 0 1
v 1 1 1
v -1 2 -1
v -1 3 -1
v 0 2 -1
v 0 3 -1
v -1 1 -2
v -1 2 -2
v 0 1 -2
v 0 2 -2
v -1 0 4
v -1 1 4
v 0 0 4
v 0 1 4
v -3 0 3
v -3 1 3
v -2 0 3
v -2 1 3
v 1 0 3
v 1 1 3
v 2 0 3
v 2 1 3
v -1 1 2
v -1 2 2
v 0 1 2
v 0 2 2
v -3 0 1
v -3 1 1
v -3 2 1
v -2 0 1
v -2 1 1
v -2 2 1
v 1 0 1
v 1 1 1
v 1 2 1
v 2 0 1
v 2 1 1
v 2 2 1
v -2 0 -0
v -2 1 -0
v -1 1 -0
v -1 2 -0
v -1 7 -0
v 0 1 -0
v 0 2 -0
v 0 7 -0
v 1 0 -0
v 1 1 -0
v -2 7 -1
v -2 12 -1
v -1 1 -1
v -1 2 -1
v 0 1 -1
v 0 2 -1
v 1 7 -1
v 1 12 -1
v -1 2 -2
v -1 3 -2
v 0 2 -2
v 0 3 -2
v -1 1 -3
v -1 2 -3
v 0 1 -3
v 0 2 -3
v -1 0 5
v 0 0 5
v -3 0 4
v -2 0 4
v -1 0 4
v 0 0 4
v 1 0 4
v 2 0 4
v -3 0 3
v -2 0 3
v -1 0 3
v 0 0 3
v 1 0 3
v 2 0 3
v -3 0 2
v -2 0 2
v 1 0 2
v 2 0 2
v -3 0 1
v -2 0 1
v -1 0 1
v 0 0 1
v 1 0 1
v 2 0 1
v -2 0 -0
v 1 0 -0
v -1 1 4
v 0 1 4
v -3 1 3
v -2 1 3
v -1 1 3
v 0 1 3
v 1 1 3
v 2 1 3
v -3 1 2
v -2 1 2
v 1 1 2
v 2 1 2
v -1 1 -0
v 0 1 -0
v -1 1 -1
v 0 1 -1
v -1 1 -2
v 0 1 -2
v -1 1 -3
v 0 1 -3
v -1 2 -1
v 0 2 -1
v -1 2 -2
v 0 2 -2
v -2 7 2
v 1 7 2
v -1 7 1
v 0 7 1
v -1 7 -0
v 0 7 -0
v -2 7 -1
v 1 7 -1
v -1 1 2
v 0 1 2
v -2 1 1
v -1 1 1
v 0 1 1
v 1 1 1
v -2 1 -0
v -1 1 -0
v 0 1 -0
v 1 1 -0
v -1 2 5
v 0 2 5
v -3 2 4
v -2 2 4
v 1 2 4
v 2 2 4
v -1 2 2
v 0 2 2
v -3 2 1
v -2 2 1
v 1 2 1
v 2 2 1
v -1 2 -0
v 0 2 -0
v -1 2 -1
v 0 2 -1
v -1 2 -2
v 0 2 -2
v -1 2 -3
v 0 2 -3
v -1 3 -1
v 0 3 -1
v -1 3 -2
v 0 3 -2
v -2 12 2
v 1 12 2
v -2 12 -1
v 1 12 -1

# faces
f 5/2/1 2/2/1 1/2/1
f 6/1/1 4/1/1 3/1/1
f 7/1/1 4/1/1 6/1/1
f 8/2/1 5/2/1 1/2/1
f 8/2/1 6/2/1 5/2/1
f 8/2/1 7/2/1 6/2/1
f 9/2/1 7/2/1 8/2/1
f 12/1/1 11/1/1 10/1/1
f 13/1/1 11/1/1 12/1/1
f 16/3/1 15/3/1 14/3/1
f 17/3/1 15/3/1 16/3/1
f 22/2/1 19/2/1 18/2/1
f 23/1/1 21/1/1 20/1/1
f 24/1/1 21/1/1 23/1/1
f 25/1/1 21/1/1 24/1/1
f 30/2/1 22/2/1 18/2/1
f 30/2/1 23/2/1 22/2/1
f 30/2/1 24/2/1 23/2/1
f 31/2/1 24/2/1 30/2/1
f 32/1/1 27/1/1 26/1/1
f 32/1/1 26/1/1 25/1/1
f 33/1/1 27/1/1 32/1/1
f 34/2/1 29/2/1 28/2/1
f 35/2/1 29/2/1 34/2/1
f 36/2/1 34/2/1 33/2/1
f 37/2/1 34/2/1 36/2/1
f 38/1/1 32/1/1 25/1/1
f 39/1/1 32/1/1 38/1/1
f 44/2/1 41/2/1 40/2/1
f 45/1/1 43/1/1 42/1/1
f 46/1/1 43/1/1 45/1/1
f 47/2/1 44/2/1 40/2/1
f 47/2/1 45/2/1 44/2/1
f 47/2/1 46/2/1 45/2/1
f 48/2/1 46/2/1 47/2/1
f 49/2/2 50/2/2 53/2/2
f 51/1/2 52/1/2 54/1/2
f 54/1/2 52/1/2 55/1/2
f 49/2/2 53/2/2 56/2/2
f 53/2/2 54/2/2 56/2/2
f 54/2/2 55/2/2 56/2/2
f 56/2/2 55/2/2 57/2/2
f 58/2/2 59/2/2 62/2/2
f 60/1/2 61/1/2 63/1/2
f 63/1/2 61/1/2 64/1/2
f 64/1/2 61/1/2 65/1/2
f 58/2/2 62/2/2 70/2/2
f 62/2/2 63/2/2 70/2/2
f 63/2/2 64/2/2 70/2/2
f 70/2/2 64/2/2 71/2/2
f 66/1/2 67/1/2 72/1/2
f 65/1/2 66/1/2 72/1/2
f 72/1/2 67/1/2 73/1/2
f 68/2/2 69/2/2 74/2/2
f 74/2/2 69/2/2 75/2/2
f 73/2/2 74/2/2 76/2/2
f 76/2/2 74/2/2 77/2/2
f 65/1/2 72/1/2 78/1/2
f 78/1/2 72/1/2 79/1/2
f 80/1/2 81/1/2 82/1/2
f 82/1/2 81/1/2 83/1/2
f 84/3/2 85/3/2 86/3/2
f 86/3/2 85/3/2 87/3/2
f 88/2/2 89/2/2 92/2/2
f 90/1/2 91/1/2 93/1/2
f 93/1/2 91/1/2 94/1/2
f 88/2/2 92/2/2 95/2/2
f 92/2/2 93/2/2 95/2/2
f 93/2/2 94/2/2 95/2/2
f 95/2/2 94/2/2 96/2/2
f 99/2/3 98/2/3 97/2/3
f 100/2/3 98/2/3 99/2/3
f 103/2/3 102/2/3 101/2/3
f 104/2/3 102/2/3 103/2/3
f 107/2/3 106/2/3 105/2/3
f 108/2/3 106/2/3 107/2/3
f 111/1/3 110/1/3 109/1/3
f 112/1/3 110/1/3 111/1/3
f 115/1/3 114/1/3 113/1/3
f 116/1/3 114/1/3 115/1/3
f 121/3/3 118/3/3 117/3/3
f 122/3/3 118/3/3 121/3/3
f 123/1/3 120/1/3 119/1/3
f 124/1/3 120/1/3 123/1/3
f 127/1/3 126/1/3 125/1/3
f 128/1/3 126/1/3 127/1/3
f 131/1/3 129/1/3 128/1/3
f 132/1/3 129/1/3 131/1/3
f 133/1/3 131/1/3 130/1/3
f 134/1/3 131/1/3 133/1/3
f 137/2/3 136/2/3 135/2/3
f 138/2/3 136/2/3 137/2/3
f 141/2/3 140/2/3 139/2/3
f 142/2/3 140/2/3 141/2/3
f 143/2/4 144/2/4 145/2/4
f 145/2/4 144/2/4 146/2/4
f 147/2/4 148/2/4 149/2/4
f 149/2/4 148/2/4 150/2/4
f 151/2/4 152/2/4 153/2/4
f 153/2/4 152/2/4 154/2/4
f 155/2/4 156/2/4 157/2/4
f 157/2/4 156/2/4 158/2/4
f 159/1/4 160/1/4 162/1/4
f 160/2/4 161/2/4 163/2/4
f 162/1/4 160/1/4 163/1/4
f 163/2/4 161/2/4 164/2/4
f 165/1/4 166/1/4 168/1/4
f 166/2/4 167/2/4 169/2/4
f 168/1/4 166/1/4 169/1/4
f 169/2/4 167/2/4 170/2/4
f 171/1/4 172/1/4 173/1/4
f 171/1/4 173/1/4 176/1/4
f 174/1/4 175/1/4 177/1/4
f 177/1/4 175/1/4 178/1/4
f 171/1/4 176/1/4 179/1/4
f 179/1/4 176/1/4 180/1/4
f 183/1/4 184/1/4 185/1/4
f 185/1/4 184/1/4 186/1/4
f 181/3/4 182/3/4 187/3/4
f 187/3/4 182/3/4 188/3/4
f 189/2/4 190/2/4 191/2/4
f 191/2/4 190/2/4 192/2/4
f 193/2/4 194/2/4 195/2/4
f 195/2/4 194/2/4 196/2/4
f 201/2/5 198/2/5 197/2/5
f 202/2/5 198/2/5 201/2/5
f 205/2/5 200/2/5 199/2/5
f 206/2/5 200/2/5 205/2/5
f 209/2/5 204/2/5 203/2/5
f 210/2/5 204/2/5 209/2/5
f 215/1/5 212/1/5 211/1/5
f 216/1/5 212/1/5 215/1/5
f 217/1/5 208/1/5 207/1/5
f 218/1/5 208/1/5 217/1/5
f 219/1/5 214/1/5 213/1/5
f 220/1/5 214/1/5 219/1/5
f 221/1/5 218/1/5 217/1/5
f 221/1/5 219/1/5 218/1/5
f 221/1/5 217/1/5 216/1/5
f 222/1/5 219/1/5 221/1/5
f 227/2/5 224/2/5 223/2/5
f 228/2/5 224/2/5 227/2/5
f 231/2/5 226/2/5 225/2/5
f 232/2/5 226/2/5 231/2/5
f 233/2/5 230/2/5 229/2/5
f 234/2/5 230/2/5 233/2/5
f 237/1/5 236/1/5 235/1/5
f 238/1/5 236/1/5 237/1/5
f 241/2/5 240/2/5 239/2/5
f 242/2/5 240/2/5 241/2/5
f 245/2/5 244/2/5 243/2/5
f 246/2/5 244/2/5 245/2/5
f 249/3/5 248/3/5 247/3/5
f 250/3/5 248/3/5 249/3/5
f 251/3/5 249/3/5 247/3/5
f 252/3/5 248/3/5 250/3/5
f 253/3/5 251/3/5 247/3/5
f 253/3/5 252/3/5 251/3/5
f 254/3/5 248/3/5 252/3/5
f 254/3/5 252/3/5 253/3/5
f 255/1/6 256/1/6 258/1/6
f 258/1/6 256/1/6 259/1/6
f 257/1/6 258/1/6 261/1/6
f 261/1/6 258/1/6 262/1/6
f 259/1/6 260/1/6 263/1/6
f 263/1/6 260/1/6 264/1/6
f 265/2/6 266/2/6 271/2/6
f 271/2/6 266/2/6 272/2/6
f 267/2/6 268/2/6 273/2/6
f 273/2/6 268/2/6 274/2/6
f 269/2/6 270/2/6 275/2/6
f 275/2/6 270/2/6 276/2/6
f 277/1/6 278/1/6 279/1/6
f 279/1/6 278/1/6 280/1/6
f 281/2/6 282/2/6 283/2/6
f 283/2/6 282/2/6 284/2/6
f 285/2/6 286/2/6 287/2/6
f 287/2/6 286/2/6 288/2/6
f 289/3/6 290/3/6 291/3/6
f 291/3/6 290/3/6 292/3/6
